<svg xmlns="http://www.w3.org/2000/svg" viewBox="0 0 500 500">
    <path d="M249.48,129.24c-3.49-25.68,9.34-52.7,24.14-69.38,16.41-19,43.95-33.06,67-34C343.51,52,333,78.55,316.91,97.43S274.76,131.06,249.48,129.24Zm125,134.26c-.47-56.73,47.16-83.95,49.23-85.19-27.06-39-68.65-43.41-83.27-44.37-38.29-2.49-70,20.7-87.71,20.7-17.92,0-45.83-20.22-75.16-19.36-38.76.48-74,22-94,56.25-40.08,68.71-10.38,170.2,28.85,225.88,19.24,27.21,41.88,57.69,71.87,56.73,28.85-1.15,39.7-18.5,74.69-18.5,34.8,0,44.6,18.5,75.16,17.73,31-.48,50.74-27.7,69.79-55,21.88-31.52,31-62.09,31.49-63.92C434.79,354.16,375.19,331.45,374.53,263.5Z"></path>
</svg>